<mxfile host="Electron" agent="Mozilla/5.0 (X11; Linux x86_64) AppleWebKit/537.36 (KHTML, like Gecko) draw.io/26.2.2 Chrome/134.0.6998.178 Electron/35.1.2 Safari/537.36" version="26.2.2">
  <diagram name="Page-1" id="E-AyJu7ZHuy4uRZTkkgU">
    <mxGraphModel dx="397" dy="231" grid="1" gridSize="10" guides="1" tooltips="1" connect="1" arrows="1" fold="1" page="1" pageScale="1" pageWidth="827" pageHeight="1169" math="0" shadow="0">
      <root>
        <mxCell id="0" />
        <mxCell id="1" parent="0" />
        <mxCell id="CfsVFOcBedcgAb57bAl6-29" style="edgeStyle=none;rounded=0;orthogonalLoop=1;jettySize=auto;html=1;exitX=0.001;exitY=0.648;exitDx=0;exitDy=0;entryX=1;entryY=0.75;entryDx=0;entryDy=0;exitPerimeter=0;" edge="1" parent="1" source="CfsVFOcBedcgAb57bAl6-7" target="CfsVFOcBedcgAb57bAl6-2">
          <mxGeometry relative="1" as="geometry">
            <mxPoint x="320.0000000000001" y="385.1111111111111" as="sourcePoint" />
          </mxGeometry>
        </mxCell>
        <mxCell id="CfsVFOcBedcgAb57bAl6-30" value="Coin/Reward" style="edgeLabel;html=1;align=center;verticalAlign=middle;resizable=0;points=[];" vertex="1" connectable="0" parent="CfsVFOcBedcgAb57bAl6-29">
          <mxGeometry x="-0.0011" relative="1" as="geometry">
            <mxPoint as="offset" />
          </mxGeometry>
        </mxCell>
        <mxCell id="CfsVFOcBedcgAb57bAl6-2" value="User" style="rounded=0;whiteSpace=wrap;html=1;" vertex="1" parent="1">
          <mxGeometry x="50" y="340" width="120" height="60" as="geometry" />
        </mxCell>
        <mxCell id="CfsVFOcBedcgAb57bAl6-18" style="edgeStyle=none;rounded=0;orthogonalLoop=1;jettySize=auto;html=1;exitX=0;exitY=0.75;exitDx=0;exitDy=0;entryX=1.011;entryY=0.662;entryDx=0;entryDy=0;entryPerimeter=0;" edge="1" parent="1" source="CfsVFOcBedcgAb57bAl6-4" target="CfsVFOcBedcgAb57bAl6-7">
          <mxGeometry relative="1" as="geometry" />
        </mxCell>
        <mxCell id="CfsVFOcBedcgAb57bAl6-19" value="Unlock / Reset Command" style="edgeLabel;html=1;align=center;verticalAlign=middle;resizable=0;points=[];rotation=0;" vertex="1" connectable="0" parent="CfsVFOcBedcgAb57bAl6-18">
          <mxGeometry x="-0.0146" relative="1" as="geometry">
            <mxPoint as="offset" />
          </mxGeometry>
        </mxCell>
        <mxCell id="CfsVFOcBedcgAb57bAl6-4" value="Maintenance&lt;div&gt;Staff&lt;/div&gt;" style="rounded=0;whiteSpace=wrap;html=1;" vertex="1" parent="1">
          <mxGeometry x="660" y="340" width="120" height="60" as="geometry" />
        </mxCell>
        <mxCell id="CfsVFOcBedcgAb57bAl6-12" style="edgeStyle=none;rounded=0;orthogonalLoop=1;jettySize=auto;html=1;exitX=0;exitY=0.5;exitDx=0;exitDy=0;entryX=1;entryY=0.5;entryDx=0;entryDy=0;" edge="1" parent="1" source="CfsVFOcBedcgAb57bAl6-7" target="CfsVFOcBedcgAb57bAl6-2">
          <mxGeometry relative="1" as="geometry" />
        </mxCell>
        <mxCell id="CfsVFOcBedcgAb57bAl6-14" value="LED/Buzzer Feedback" style="edgeLabel;html=1;align=center;verticalAlign=middle;resizable=0;points=[];rotation=0;" vertex="1" connectable="0" parent="CfsVFOcBedcgAb57bAl6-12">
          <mxGeometry x="0.0546" relative="1" as="geometry">
            <mxPoint x="7" y="1" as="offset" />
          </mxGeometry>
        </mxCell>
        <mxCell id="CfsVFOcBedcgAb57bAl6-7" value="Smart Bin&lt;div&gt;System&lt;/div&gt;" style="rounded=1;whiteSpace=wrap;html=1;" vertex="1" parent="1">
          <mxGeometry x="334" y="320" width="160" height="100" as="geometry" />
        </mxCell>
        <mxCell id="CfsVFOcBedcgAb57bAl6-20" style="edgeStyle=none;rounded=0;orthogonalLoop=1;jettySize=auto;html=1;exitX=0.994;exitY=0.359;exitDx=0;exitDy=0;entryX=0;entryY=0.25;entryDx=0;entryDy=0;exitPerimeter=0;" edge="1" parent="1" source="CfsVFOcBedcgAb57bAl6-7" target="CfsVFOcBedcgAb57bAl6-4">
          <mxGeometry relative="1" as="geometry" />
        </mxCell>
        <mxCell id="CfsVFOcBedcgAb57bAl6-21" value="Status Alert (Bin Full)" style="edgeLabel;html=1;align=center;verticalAlign=middle;resizable=0;points=[];rotation=0;" vertex="1" connectable="0" parent="CfsVFOcBedcgAb57bAl6-20">
          <mxGeometry x="0.0103" relative="1" as="geometry">
            <mxPoint as="offset" />
          </mxGeometry>
        </mxCell>
        <mxCell id="CfsVFOcBedcgAb57bAl6-22" style="edgeStyle=none;rounded=0;orthogonalLoop=1;jettySize=auto;html=1;" edge="1" parent="1" source="CfsVFOcBedcgAb57bAl6-25" target="CfsVFOcBedcgAb57bAl6-7">
          <mxGeometry relative="1" as="geometry" />
        </mxCell>
        <mxCell id="CfsVFOcBedcgAb57bAl6-23" value="Power Supply" style="edgeLabel;html=1;align=center;verticalAlign=middle;resizable=0;points=[];" vertex="1" connectable="0" parent="CfsVFOcBedcgAb57bAl6-22">
          <mxGeometry x="-0.0356" y="1" relative="1" as="geometry">
            <mxPoint as="offset" />
          </mxGeometry>
        </mxCell>
        <mxCell id="CfsVFOcBedcgAb57bAl6-25" value="Power Bank" style="rounded=0;whiteSpace=wrap;html=1;" vertex="1" parent="1">
          <mxGeometry x="354" y="180" width="120" height="60" as="geometry" />
        </mxCell>
        <mxCell id="CfsVFOcBedcgAb57bAl6-27" style="edgeStyle=none;rounded=0;orthogonalLoop=1;jettySize=auto;html=1;exitX=1;exitY=0.25;exitDx=0;exitDy=0;entryX=-0.01;entryY=0.348;entryDx=0;entryDy=0;entryPerimeter=0;" edge="1" parent="1" source="CfsVFOcBedcgAb57bAl6-2" target="CfsVFOcBedcgAb57bAl6-7">
          <mxGeometry relative="1" as="geometry" />
        </mxCell>
        <mxCell id="CfsVFOcBedcgAb57bAl6-28" value="Waste Item" style="edgeLabel;html=1;align=center;verticalAlign=middle;resizable=0;points=[];" vertex="1" connectable="0" parent="CfsVFOcBedcgAb57bAl6-27">
          <mxGeometry x="-0.1386" relative="1" as="geometry">
            <mxPoint x="14" as="offset" />
          </mxGeometry>
        </mxCell>
      </root>
    </mxGraphModel>
  </diagram>
</mxfile>
